<?xml version="1.0" encoding="UTF-8"?><svg id="Layer_2" xmlns="http://www.w3.org/2000/svg" viewBox="0 0 450 107.74"><defs><style>.cls-1{fill:#fff;}</style></defs><g id="Layer_1-2"><path class="cls-1" d="M139.69,20.79h-6.53v-7.58h6.53v7.58Zm0,52.23h-6.53V29.01h6.53v44.01Zm63.28-21.48c2.74,.63,5,2.04,6.79,4.21,1.79,2.18,2.69,4.67,2.69,7.48,0,2.39-.76,4.49-2.26,6.32-1.51,1.83-3.39,2.98-5.63,3.47-.77,.21-1.51,.32-2.21,.32h-48.23v-6.53h48.23c.98,0,1.82-.35,2.53-1.05,.7-.7,1.05-1.54,1.05-2.53,0-1.26-.39-2.39-1.16-3.37-.77-.98-1.79-1.61-3.05-1.9l-39.8-4.32c-2.74-.56-5-1.95-6.79-4.16-1.79-2.21-2.69-4.72-2.69-7.53,0-3.58,1.26-6.63,3.79-9.16s5.58-3.79,9.16-3.79h45.7v6.53h-45.7c-1.76,0-3.26,.63-4.53,1.9s-1.9,2.77-1.9,4.53c0,1.26,.38,2.39,1.16,3.37,.77,.98,1.75,1.62,2.95,1.9l39.91,4.32Zm80.55-22.43h6.42v43.91h-6.42v-6.95c-4.49,4.63-9.93,6.95-16.32,6.95h-27.59c-4.49,0-8.32-1.58-11.48-4.74-3.16-3.16-4.74-6.98-4.74-11.48v-11.58c0-4.42,1.58-8.23,4.74-11.42,3.16-3.19,6.98-4.79,11.48-4.79h34.12c3.65,0,6.91,1.09,9.79,3.26v-3.16Zm0,21.06v-4.95c0-2.67-.95-4.95-2.84-6.84-1.9-1.9-4.21-2.84-6.95-2.84h-34.12c-2.67,0-4.95,.95-6.84,2.84-1.9,1.9-2.84,4.18-2.84,6.84v11.58c0,2.67,.95,4.95,2.84,6.84,1.9,1.9,4.18,2.84,6.84,2.84h27.59c4.49,0,8.33-1.6,11.53-4.79,3.19-3.19,4.79-7.04,4.79-11.53Zm80.03-21.06h6.42v43.91h-6.42v-6.95c-4.49,4.63-9.93,6.95-16.32,6.95h-27.59c-4.49,0-8.32-1.58-11.48-4.74-3.16-3.16-4.74-6.98-4.74-11.48v-11.58c0-4.42,1.58-8.23,4.74-11.42,3.16-3.19,6.98-4.79,11.48-4.79h34.12c3.65,0,6.91,1.09,9.79,3.26v-3.16Zm0,21.06v-4.95c0-2.67-.95-4.95-2.84-6.84-1.9-1.9-4.21-2.84-6.95-2.84h-34.12c-2.67,0-4.95,.95-6.84,2.84-1.9,1.9-2.84,4.18-2.84,6.84v11.58c0,2.67,.95,4.95,2.84,6.84,1.9,1.9,4.18,2.84,6.84,2.84h27.59c4.49,0,8.33-1.6,11.53-4.79,3.19-3.19,4.79-7.04,4.79-11.53Zm70.23,16.32c2.74,0,5.05-.95,6.95-2.84,1.9-1.9,2.84-4.18,2.84-6.84h6.42c0,4.49-1.58,8.32-4.74,11.48-3.16,3.16-6.99,4.74-11.48,4.74h-34.12c-4.49,0-8.32-1.58-11.48-4.74-3.16-3.16-4.74-6.98-4.74-11.48v-11.58c0-4.49,1.58-8.32,4.74-11.48,3.16-3.16,6.98-4.74,11.48-4.74h34.12c4.49,0,8.32,1.58,11.48,4.74,3.16,3.16,4.74,6.99,4.74,11.48h-6.42c0-2.67-.95-4.95-2.84-6.84-1.9-1.9-4.21-2.84-6.95-2.84h-34.12c-2.67,0-4.95,.95-6.84,2.84-1.9,1.9-2.84,4.18-2.84,6.84v11.58c0,2.67,.95,4.95,2.84,6.84,1.9,1.9,4.18,2.84,6.84,2.84h34.12Zm-301.22,21.79h1.36v5.36h-1.36v.71h3.43v-.71h-1.36v-5.36h1.36v-.71h-3.43v.71Zm10.41,5.33l-4.28-6.03h-1.11v6.76h.71v-6.05h.03l4.3,6.03,.03,.03h1.03v-6.77h-.7v6.03Zm2.02-5.32h2.92v6.05h.71v-6.05h3.14v-.71h-6.77v.71Zm8.09,6.06h6.15v-.71h-5.44v-2.15h5.12v-.71h-5.12v-2.48h5.44v-.71h-6.15v6.77Zm8.57-6.77h-.71v6.76h5.76v-.7h-5.05v-6.06Zm7.1,0h-.71v6.76h5.76v-.7h-5.05v-6.06Zm6.09,.7h1.36v5.36h-1.36v.71h3.43v-.71h-1.36v-5.36h1.36v-.71h-3.43v.71Zm9.49-.7h-3.05c-.42,0-.78,.15-1.08,.45-.3,.3-.45,.66-.45,1.08v3.73c0,.37,.12,.71,.36,.99,.24,.28,.54,.45,.9,.52,.09,.01,.17,.02,.27,.02h2.46c.11,0,.22,0,.32-.02,.41-.06,.78-.23,1.08-.51v.66h.71v-3.72h-2.23v.71h1.52v.77c0,.38-.14,.71-.41,.99-.27,.28-.61,.41-.99,.41h-2.46c-.23,0-.41-.08-.58-.24s-.24-.35-.24-.58v-3.73c0-.23,.08-.41,.24-.58,.16-.16,.35-.24,.58-.24h3.05c.23,0,.41,.08,.58,.24,.16,.16,.24,.35,.24,.58v.64h.71v-.64c0-.41-.15-.78-.45-1.08-.3-.3-.66-.45-1.08-.45Zm3.29,6.77h6.15v-.71h-5.44v-2.15h5.12v-.71h-5.12v-2.48h5.44v-.71h-6.15v6.77Zm13.25-.74l-4.28-6.03h-1.11v6.76h.71v-6.05h.03l4.3,6.03,.03,.03h1.03v-6.77h-.7v6.03Zm2.02-5.32h2.92v6.05h.71v-6.05h3.14v-.71h-6.77v.71Zm16.58,2.17h-3.02c-.23,0-.41-.08-.58-.24s-.24-.35-.24-.58v-.56c0-.23,.08-.42,.24-.58,.16-.16,.35-.24,.57-.24h4.38v-.7h-4.38c-.08,0-.17,0-.25,.02-.37,.06-.68,.23-.92,.52-.24,.28-.36,.62-.36,.99v.56c0,.41,.15,.77,.45,1.07s.66,.45,1.08,.45h3.02c.23,0,.41,.08,.57,.24,.16,.16,.24,.35,.24,.58v.89c0,.23-.08,.41-.24,.58-.16,.16-.35,.24-.58,.24h-4.2v.7h4.2c.15,0,.3-.02,.44-.06,.32-.09,.58-.28,.78-.55,.2-.27,.31-.58,.31-.91v-.89c0-.42-.15-.78-.45-1.08-.3-.3-.66-.45-1.08-.45Zm8.65-2.88h0c-.09-.01-.18-.02-.27-.02h-3.83c-.09,0-.18,0-.27,.02-.36,.07-.66,.24-.9,.52-.24,.28-.36,.61-.36,.99v3.76c0,.36,.11,.69,.34,.97,.23,.28,.52,.46,.86,.53,.11,.02,.22,.03,.32,.03h3.83c.1,0,.21,0,.33-.03,.34-.07,.63-.25,.86-.53,.23-.28,.34-.6,.34-.97v-3.76c0-.37-.12-.71-.36-.99-.24-.28-.54-.45-.9-.52Zm.55,1.51v3.76c0,.23-.08,.42-.24,.58s-.35,.24-.58,.24h-3.83c-.23,0-.41-.08-.58-.24s-.24-.35-.24-.58v-3.76c0-.23,.08-.42,.24-.58,.16-.16,.35-.24,.58-.24h3.83c.23,0,.41,.08,.58,.24,.16,.16,.24,.35,.24,.58Zm3.2-1.51h-.71v6.76h5.76v-.7h-5.05v-6.06Zm11.63,5.26c0,.23-.08,.41-.24,.57-.16,.16-.35,.24-.58,.24h-3.01c-.23,0-.41-.08-.58-.24-.16-.16-.24-.35-.24-.58v-5.26h-.71v5.26c0,.38,.13,.72,.38,1,.25,.28,.57,.45,.94,.5,.06,.01,.13,.02,.21,.02h3.01c.08,0,.15,0,.22-.02,.37-.05,.68-.22,.93-.51,.25-.28,.38-.62,.38-1v-5.26h-.7v5.26Zm1.96-4.54h2.92v6.05h.71v-6.05h3.14v-.71h-6.77v.71Zm8.19,0h1.36v5.36h-1.36v.71h3.43v-.71h-1.36v-5.36h1.36v-.71h-3.43v.71Zm10.54-.7h0c-.09-.01-.18-.02-.27-.02h-3.83c-.09,0-.18,0-.27,.02-.36,.07-.66,.24-.9,.52-.24,.28-.36,.61-.36,.99v3.76c0,.36,.11,.69,.34,.97,.23,.28,.52,.46,.86,.53,.11,.02,.22,.03,.32,.03h3.83c.1,0,.21,0,.33-.03,.34-.07,.63-.25,.86-.53,.23-.28,.34-.6,.34-.97v-3.76c0-.37-.12-.71-.36-.99-.24-.28-.54-.45-.9-.52Zm.55,1.51v3.76c0,.23-.08,.42-.24,.58-.16,.16-.35,.24-.58,.24h-3.83c-.23,0-.41-.08-.58-.24-.16-.16-.24-.35-.24-.58v-3.76c0-.23,.08-.42,.24-.58,.16-.16,.35-.24,.58-.24h3.83c.23,0,.41,.08,.58,.24s.24,.35,.24,.58Zm7.89,4.53l-4.28-6.03h-1.11v6.76h.71v-6.05h.03l4.3,6.03,.03,.03h1.03v-6.77h-.7v6.03Zm11.14-5.65c-.29-.25-.63-.38-1-.38h-1.5c-.37,0-.71,.13-1,.38-.29,.25-.46,.57-.51,.95l-.72,5.43h.71l.34-2.56h3.85l.34,2.56h.71l-.72-5.43c-.05-.38-.22-.69-.51-.95Zm-2.5,.33h1.5c.2,0,.38,.07,.54,.2,.16,.14,.25,.3,.27,.5l.28,2.08h-3.67l.28-2.08h0c.02-.2,.11-.37,.27-.5,.16-.14,.34-.2,.54-.2Zm10.67,5.32l-4.28-6.03h-1.11v6.76h.71v-6.05h.03l4.3,6.03,.03,.03h1.03v-6.77h-.7v6.03Zm7.27-6.03h-4.69v6.77h4.69s.08,0,.11,0c.39-.03,.73-.2,1-.49,.27-.29,.41-.64,.41-1.03v-3.62c0-.43-.15-.81-.46-1.13-.31-.33-.66-.49-1.07-.49Zm-3.98,.71h3.98c.21,0,.4,.09,.56,.27,.17,.18,.25,.4,.25,.63v3.62c0,.23-.08,.41-.24,.58-.16,.16-.35,.24-.58,.24h-3.98v-5.35Zm15.81-.33c-.29-.25-.63-.38-1-.38h-1.5c-.37,0-.71,.13-1,.38-.29,.25-.46,.57-.51,.95l-.72,5.43h.71l.34-2.56h3.85l.34,2.56h.71l-.72-5.43c-.05-.38-.22-.69-.51-.95Zm-2.5,.33h1.5c.2,0,.38,.07,.54,.2,.16,.14,.25,.3,.27,.5l.28,2.08h-3.67l.28-2.08h0c.02-.2,.11-.37,.27-.5,.16-.14,.34-.2,.54-.2Zm10.5,4.54c0,.23-.08,.41-.24,.57-.16,.16-.35,.24-.58,.24h-3.01c-.23,0-.41-.08-.58-.24-.16-.16-.24-.35-.24-.58v-5.26h-.71v5.26c0,.38,.13,.72,.38,1,.25,.28,.57,.45,.94,.5,.06,.01,.13,.02,.21,.02h3.01c.08,0,.15,0,.22-.02,.37-.05,.68-.22,.93-.51,.25-.28,.38-.62,.38-1v-5.26h-.7v5.26Zm1.96-4.54h2.92v6.05h.71v-6.05h3.14v-.71h-6.77v.71Zm13.61-.71h0c-.09-.01-.18-.02-.27-.02h-3.83c-.09,0-.18,0-.27,.02-.36,.07-.66,.24-.9,.52-.24,.28-.36,.61-.36,.99v3.76c0,.36,.12,.69,.34,.97,.23,.28,.52,.46,.86,.53,.11,.02,.22,.03,.32,.03h3.83c.1,0,.21,0,.33-.03,.34-.07,.63-.25,.86-.53,.23-.28,.34-.6,.34-.97v-3.76c0-.37-.12-.71-.36-.99-.24-.28-.54-.45-.9-.52Zm.55,1.51v3.76c0,.23-.08,.42-.24,.58-.16,.16-.35,.24-.58,.24h-3.83c-.23,0-.41-.08-.58-.24-.16-.16-.24-.35-.24-.58v-3.76c0-.23,.08-.42,.24-.58s.35-.24,.58-.24h3.83c.23,0,.41,.08,.58,.24,.16,.16,.24,.35,.24,.58Zm8.94-1.46l-2.63,4.82-2.63-4.83-.04-.04h-1.15v6.77h.71v-6.07h.04l2.77,5.1h.61l2.78-5.1h.04v6.07h.71v-6.77h-1.2v.05Zm7.47,.34c-.29-.25-.63-.38-1-.38h-1.5c-.37,0-.71,.13-1,.38-.29,.25-.46,.57-.51,.95l-.72,5.43h.71l.34-2.56h3.85l.34,2.56h.71l-.72-5.43c-.05-.38-.22-.69-.51-.95Zm-2.5,.33h1.5c.2,0,.38,.07,.54,.2,.16,.14,.25,.3,.27,.5l.28,2.08h-3.67l.28-2.08h0c.02-.2,.11-.37,.27-.5,.16-.14,.34-.2,.54-.2Zm4.27,0h2.92v6.05h.71v-6.05h3.14v-.71h-6.77v.71Zm8.09,6.06h6.15v-.71h-5.44v-2.15h5.12v-.71h-5.12v-2.48h5.44v-.71h-6.15v6.77Zm12.54-6.77h-4.69v6.77h4.69s.08,0,.11,0c.39-.03,.73-.2,1-.49,.27-.29,.41-.64,.41-1.03v-3.62c0-.43-.15-.81-.46-1.13-.31-.33-.66-.49-1.07-.49Zm-3.98,.71h3.98c.21,0,.4,.09,.56,.27,.17,.18,.25,.4,.25,.63v3.62c0,.23-.08,.41-.24,.58-.16,.16-.35,.24-.58,.24h-3.98v-5.35Zm15.89-.74h-3.05c-.42,0-.78,.15-1.08,.45-.3,.3-.45,.66-.45,1.08v3.77c0,.33,.1,.63,.29,.89,.19,.26,.44,.44,.73,.55,.16,.06,.33,.09,.51,.09h3.05c.17,0,.34-.03,.51-.09,.3-.1,.54-.29,.73-.55,.19-.26,.29-.56,.29-.89v-1.54h-.71v1.54c0,.23-.08,.42-.24,.58-.16,.16-.35,.24-.57,.24h-3.05c-.23,0-.41-.08-.57-.24-.16-.16-.24-.35-.24-.58v-3.77c0-.23,.08-.41,.24-.58,.16-.16,.35-.24,.58-.24h3.05c.23,0,.41,.08,.58,.24,.16,.16,.24,.35,.24,.58v.65h.71v-.65c0-.41-.15-.78-.45-1.08-.3-.3-.66-.45-1.08-.45Zm8.73,.03h0c-.09-.01-.18-.02-.27-.02h-3.83c-.09,0-.18,0-.27,.02-.36,.07-.66,.24-.9,.52-.24,.28-.36,.61-.36,.99v3.76c0,.36,.12,.69,.34,.97,.23,.28,.52,.46,.86,.53,.11,.02,.22,.03,.32,.03h3.83c.1,0,.21,0,.33-.03,.34-.07,.63-.25,.86-.53,.23-.28,.34-.6,.34-.97v-3.76c0-.37-.12-.71-.36-.99-.24-.28-.54-.45-.9-.52Zm.55,1.51v3.76c0,.23-.08,.42-.24,.58-.16,.16-.35,.24-.58,.24h-3.83c-.23,0-.41-.08-.58-.24s-.24-.35-.24-.58v-3.76c0-.23,.08-.42,.24-.58,.16-.16,.35-.24,.58-.24h3.83c.23,0,.41,.08,.58,.24,.16,.16,.24,.35,.24,.58Zm8.94-1.46l-2.63,4.82-2.63-4.83-.04-.04h-1.15v6.77h.71v-6.07h.04l2.77,5.1h.61l2.78-5.1h.04v6.07h.71v-6.77h-1.2v.05Zm7.52-.05h-4.44v6.76h.71v-2.85h3.69c.42,0,.78-.15,1.08-.45,.3-.3,.45-.66,.45-1.07v-.86c0-.41-.15-.77-.44-1.07-.29-.3-.64-.45-1.05-.46Zm-.04,3.2h-3.69v-2.49h3.69c.23,0,.42,.08,.58,.24,.16,.16,.24,.35,.24,.58v.86c0,.23-.08,.41-.24,.57-.16,.16-.35,.24-.58,.24Zm8.32,2.06c0,.23-.08,.41-.24,.57-.16,.16-.35,.24-.58,.24h-3.01c-.23,0-.41-.08-.58-.24s-.24-.35-.24-.58v-5.26h-.71v5.26c0,.38,.13,.72,.38,1,.25,.28,.57,.45,.94,.5,.06,.01,.13,.02,.21,.02h3.01c.08,0,.15,0,.22-.02,.37-.05,.68-.22,.93-.51,.25-.28,.38-.62,.38-1v-5.26h-.7v5.26Zm1.96-4.54h2.92v6.05h.71v-6.05h3.14v-.71h-6.77v.71Zm8.19,0h1.36v5.36h-1.36v.71h3.43v-.71h-1.36v-5.36h1.36v-.71h-3.43v.71Zm10.41,5.33l-4.28-6.03h-1.11v6.76h.71v-6.05h.03l4.3,6.03,.03,.03h1.03v-6.77h-.7v6.03Zm8.47-3.87v-.64c0-.41-.15-.78-.45-1.08-.3-.3-.66-.45-1.08-.45h-3.05c-.42,0-.78,.15-1.08,.45-.3,.3-.45,.66-.45,1.08v3.73c0,.37,.12,.71,.36,.99,.24,.28,.54,.45,.9,.52,.09,.01,.17,.02,.27,.02h2.46c.11,0,.22,0,.32-.02,.41-.06,.78-.23,1.08-.51v.66h.71v-3.72h-2.23v.71h1.52v.77c0,.38-.14,.71-.41,.99-.27,.28-.61,.41-.99,.41h-2.46c-.23,0-.41-.08-.58-.24s-.24-.35-.24-.58v-3.73c0-.23,.08-.41,.24-.58,.16-.16,.35-.24,.58-.24h3.05c.23,0,.41,.08,.58,.24,.16,.16,.24,.35,.24,.58v.64h.71ZM44.26,19.33c-.29-2.14-.54-4.29-.77-6.43-.02-2.6-1.16-5.18-3.73-6.14-2.8-1.06-5.54-3.22-8.4-1.01-1.59,1.18-3.18,2.35-4.77,3.53-1.7,1.33-3.8,2.39-4.63,4.51-1.08,2.55-1.97,5.19-2.7,7.86-.35,1.52-1.01,3.09-.81,4.66,.56,4.01,5.28,4.82,8.32,6.4,4.65,2.33,7.35-.72,10.42-3.47,1.41-1.23,2.85-2.5,4.24-3.74,1.92-1.43,3.19-3.74,2.82-6.18Zm-9.39-11.39c.93,.42,1.82,.88,2.77,1.26,1.25,.4,2.59,1.15,2.69,2.62,.26,2.65,.58,5.3,.92,7.95-2.78-.95-5.59-2.02-8.13-3.12,.38-2.94,.92-5.86,1.75-8.7h0Zm-12.9,15.39c.75-2.85,1.67-5.66,2.82-8.37,.71-1.51,2.41-2.17,3.62-3.22,.96-.71,1.92-1.42,2.88-2.13-.56,2.37-.96,4.78-1.26,7.2-.36,.3-.72,.59-1.09,.89-1.44,1.17-2.86,2.34-4.28,3.51-.16,.13-.32,.27-.48,.39-.03,.02-.06,.05-.08,.07-.03,.02-.06,.05-.09,.07-.76,.62-1.49,1.23-2.07,1.7,0-.03,.02-.07,.03-.1Zm17.81-.41c-2.49,2.21-5.05,4.44-7.71,6.77-1.39,1.3-3.27,.71-4.77-.06-1.72-.77-3.48-1.5-5.11-2.46,1.15-.95,2.23-1.85,3.44-2.84h0c1.58-1.3,3.16-2.59,4.74-3.89,.24-.2,.48-.4,.73-.6,.08-.06,.16-.13,.24-.19,.12-.1,.24-.2,.37-.3,3.11,1.34,5.34,2.17,8.42,3.24-.12,.11-.24,.21-.36,.32Zm36.32-9.95c-.31-1.29-1.27-2.32-2.08-3.35-1.03-1.27-2.1-2.51-3.22-3.71-2.54-2.75-3.8-4.19-7.7-4.63-1.54-.3-3.1-.61-4.61-.9-2.14-.58-4.52-.65-6.28,.86-7.25,6.83-4.59,7.94-2.31,16.61,.98,3.83,4.89,4.48,8.18,5.37,4.09,.86,9.05,3.92,12.5,.02,1.22-1.36,2.37-2.69,3.51-4.1,1.54-1.66,2.71-3.88,2-6.18ZM59.36,3.65c1.42,.28,2.5,.49,4.1,.8,.89,.17,1.85,.29,2.54,.94,2.16,2.03,4.13,4.23,5.98,6.54-2.61-.64-7.1-1.74-10.1-2.47-1.33-2.26-2.67-4.3-4-6.1,.43,.08,.92,.18,1.49,.29Zm-6.54,13.35c-.76-2.6-1.49-5.04-2.18-7.25-.35-1.12-.06-2.33,.74-3.17,1.2-1.18,1.8-2.09,2.81-3.03,1.59,1.98,3.2,4.34,4.82,7.05-2.18,2.45-3.87,4.17-6.18,6.44v-.05Zm19.88-1.03c-1.09,1.41-2.22,2.77-3.4,4.11-1.19,1.59-2.6,2.66-4.65,1.82-3.23-.89-6.45-1.79-9.66-2.71,2.38-2.34,4.12-4.11,6.42-6.7,3.18,.77,10.28,2.53,11.65,2.86-.09,.22-.2,.43-.35,.62ZM29.48,58.69c-.58-3.9-1.02-7.83-1.32-11.76,.11-5.82-3.22-6.71-7.78-8.73-3.37-1.81-6.44-3.34-9.81-.46-3.61,3.23-6.63,6.24-9.91,9.66C.18,51.31-.04,55.27,0,59.23c.13,2.45-.08,5.01,.58,7.39,.61,1.94,2.32,3.2,4.05,4.09,1.72,.99,3.44,1.86,5.24,2.72,6.66,3.69,8.58,.27,12.9-4.36,1.23-1.29,2.47-2.56,3.73-3.84,1.88-1.62,3.45-3.93,2.97-6.54Zm-14.19-19.48c1.9,.58,3.59,1.77,5.45,2.5,1.76,.8,4.21,1.42,4.27,3.76,.28,4.48,.76,8.94,1.41,13.38-4.06-1.57-7.83-3.18-11.69-5-.17-4.89,0-9.79,.56-14.65h0ZM3.05,57.76c.01-1.96,.09-3.93,.24-5.89,.14-1.34,.02-2.89,1.06-3.9,2.51-2.61,5.04-5.07,7.75-7.51-.44,4.57-.56,9.18-.39,13.77-3.7,3.74-5.57,5.66-8.51,9.15-.11-1.87-.16-3.75-.15-5.63Zm21.9,4.73c-2.29,2.31-4.48,4.55-6.66,6.93-2.61,3.32-3.93,2.93-7.42,1.11-2.24-1.12-4.54-2.18-6.58-3.64,3.09-3.85,5.51-6.39,9.28-10.21,4.55,2.13,7.59,3.38,12.04,5.13-.22,.23-.45,.46-.67,.68Zm85-20.94c0-.13-.03-.26-.06-.39-1.44-5.38-4.37-10.38-7.02-15.11-.73-1.22-1.87-2.17-3.2-2.66-2.85-.98-5.71-1.9-8.6-2.76-1.65-.43-3.34-1.22-5.07-1.04-1.74,.16-3.38,1.04-4.44,2.45-2.4,3.77-7.99,7.1-5.91,12.24,1.88,4.4,3.17,9.36,5,13.98,1.35,2.55,4.36,3.05,6.82,3.99,1.91,.69,3.8,1.39,5.69,2.13,1.54,.55,3.08,1.44,4.74,1.4,1.82,0,3.61-.82,4.8-2.27,2.95-4.08,7.47-7.92,7.26-11.96Zm-21.54-18.53c2.45,.72,4.85,1.45,7.27,2.25,1.51,.62,3.46,.74,4.46,2.18,2.35,3.9,4.4,8.07,6.15,12.32-4.43-1.86-7.34-2.92-12.06-4.57-1.63-3.78-3.45-7.48-5.48-11.05-.02-.04-.05-.09-.07-.13-.04-.06-.07-.13-.11-.19-.17-.31-.35-.61-.53-.92,.13,.04,.26,.07,.38,.11Zm-3.4,.77c2.38,3.97,4.48,8.12,6.32,12.37-2.62,3.21-5.44,6.45-8.42,9.65-1.35-4.36-2.84-8.61-4.43-12.65-.44-1.13-.23-2.39,.57-3.29,2.1-2.23,3.54-4.49,5.62-6.65,.12,.19,.23,.38,.35,.58Zm11.69,28.71c-3.88-1.57-7.81-3-11.77-4.38,3.26-3.54,5.48-6,8.67-9.92,4.61,1.61,8.85,3.21,13.05,5.04-1.8,2.79-3.46,4.82-6.44,8.49-.9,.94-2.28,1.25-3.5,.76Zm-38.04,39.71c-1.19-4.4-2.33-8.82-3.43-13.25-.76-3.73-4.63-4.66-7.76-5.65-1.97-.66-3.89-1.32-5.84-2-1.75-.53-3.46-1.48-5.31-1.53-2.27-.11-4.21,1.27-5.6,2.95-1.82,1.91-3.7,3.92-5.43,5.81-2.24,2.22-4.61,5.02-3.4,8.38,1.11,3.47,2.36,6.89,3.75,10.26,1.06,2.44,1.77,5.07,4.34,6.36,5.14,1.62,10.85,3.55,15.08,4.21,4.05,.05,6.18-4.12,8.94-6.47,2.57-2.57,5.84-4.9,4.67-9.06Zm-20.04-18.74c2.95,1.05,5.78,2.02,8.78,3.03,2.38,.83,4.71,1.02,5.08,4.04,1.04,4.18,2.12,8.33,3.24,12.48-5.13-1.55-9-2.72-14.36-4.39-1.64-5.17-3.07-10.41-4.32-15.7,0,0,0,0,0,0,.53,.16,1.06,.37,1.57,.55Zm-11.14,20.12c-.73-1.87-1.41-3.76-2.06-5.66-.59-1.63-1.37-3.58,.03-5.04,2.83-3.15,5.64-6.19,8.63-9.26,1.26,5.32,2.7,10.6,4.35,15.81-3.47,3.67-5.52,5.87-8.67,9.59-.8-1.79-1.56-3.61-2.28-5.44Zm27.39,2.53c-12.12,11.67-5.52,9.37-22.83,4.95,2.64-3.16,5.49-6.25,8.57-9.49,4.93,1.54,9.5,2.92,14.4,4.4-.04,.05-.09,.09-.13,.14Zm45.09-12.67c-.16-3.47-.46-6.93-.89-10.38-.37-3.25-.57-7.23-4.02-8.73-6.29-2.35-10.46-4.51-14.16-5.04-1.69-.04-3.37,.64-4.57,1.85-2.16,2.19-5.58,5.63-9.63,9.61-2.71,2.45-1.76,6.11-.97,9.2,3.53,16.61,1.21,12.45,16.63,18.21,4.67,1.67,7.69-2.91,10.86-5.5,2.59-2.73,6.97-4.92,6.72-9.22Zm-4.46-13.98c.7,4.6,1.18,9.24,1.4,13.89-4.44-1.91-7.55-3.09-12.16-4.79-.86-5.4-1.91-10.77-3.11-16.1,4.32,1.58,7.65,2.82,12.16,4.64,.91,.46,1.55,1.35,1.71,2.36Zm-27.07,8.57c-.37-1.67-1.1-3.66,.34-5.04,5.08-4.99,7.05-6.96,9.9-9.87,.02,.1,.04,.19,.07,.29,1.17,5.2,2.19,10.45,3.03,15.71-2.54,2.4-4.24,4.01-6.63,6.24h0c-1.4,1.31-2.84,2.65-4.27,3.99-.79-3.77-1.58-7.49-2.42-11.32Zm26.43,9c-1.71,1.59-3.44,3.17-5.17,4.73-1.06,.96-2.11,1.9-3.18,2.86h0c-2.27,2-5.2-.39-7.7-.96-1.78-.62-4.17-1.4-5.97-2,3.48-3.25,7.16-6.68,10.52-9.86,0,0,0,0,0,0,.13-.12,.26-.25,.39-.37,4.19,1.54,8.24,3.1,12.03,4.75-.31,.29-.61,.57-.92,.85Zm-17.98-36.59c-1.7-6.2-3.5-12.26-5.37-18-.64-1.96-2.2-3.48-4.17-4.06-9.18-2.71-11.22-3.32-15.95-4.76-2.1-.65-4.46-.11-6.06,1.38-3.37,3.11-5.84,5.35-12.48,11.37-1.5,1.36-2.25,3.38-2,5.4,.99,6.47,1.51,13.64,3.4,20.27,.73,1.47,2.02,2.6,3.58,3.14,0,0,17.7,6.04,17.7,6.04,2.22,.77,4.75,.2,6.41-1.47,8.03-8.92,16.65-13.41,14.96-19.29Zm-3.77,3.91c-2.07,2.05-6.05,6.01-13.33,13.22-.87,.86-2.13,1.15-3.29,.76-.38-.16-17.63-5.97-18.01-6.16,3.31-3.18,5.27-5.03,15.12-14.38,5.61,1.78,17.7,5.63,19.74,6.29-.07,.09-.15,.18-.24,.27Zm-38.23-15.73c6.7-6.07,9.12-8.27,12.58-11.46,1.28,5.84,2.65,12.01,4.08,18.39-9.61,9.11-11.72,11.12-14.89,14.15-1.13-6.24-2.07-12.4-2.8-18.32-.13-1.03,.26-2.07,1.03-2.77Zm23.08,7.36c-1.14-.36-2.3-.73-3.46-1.1-1.43-6.38-2.8-12.54-4.08-18.37,4.8,1.46,6.8,2.07,16.04,4.79,1.01,.3,1.81,1.08,2.14,2.08,1.84,5.64,3.61,11.58,5.28,17.67-1.84-.6-8.51-2.72-15.92-5.07Z"/></g></svg>